<svg width="3240" height="3240" viewBox="0 0 3240 3240" fill="none" xmlns="http://www.w3.org/2000/svg">
<mask id="path-1-inside-1_1652_44" fill="white">
<path fill-rule="evenodd" clip-rule="evenodd" d="M1620 370H370V1620C370 2310.36 929.644 2870 1620 2870C2310.36 2870 2870 2310.36 2870 1620C2870 929.644 2310.36 370 1620 370ZM1203.33 1620C1433.45 1620 1620 1433.45 1620 1203.33C1620 973.215 1433.45 786.667 1203.33 786.667C973.215 786.667 786.667 973.215 786.667 1203.33C786.667 1433.45 973.215 1620 1203.33 1620Z"/>
</mask>
<path d="M370 370V362H362V370H370ZM370 370V378H1620V370V362H370V370ZM370 1620H378V370H370H362V1620H370ZM1620 2870V2862C934.062 2862 378 2305.94 378 1620H370H362C362 2314.77 925.226 2878 1620 2878V2870ZM2870 1620H2862C2862 2305.94 2305.94 2862 1620 2862V2870V2878C2314.77 2878 2878 2314.77 2878 1620H2870ZM1620 370V378C2305.94 378 2862 934.062 2862 1620H2870H2878C2878 925.226 2314.77 362 1620 362V370ZM1620 1203.33H1612C1612 1429.03 1429.03 1612 1203.33 1612V1620V1628C1437.87 1628 1628 1437.87 1628 1203.33H1620ZM1203.33 786.667V794.667C1429.03 794.667 1612 977.633 1612 1203.33H1620H1628C1628 968.796 1437.87 778.667 1203.33 778.667V786.667ZM786.667 1203.33H794.667C794.667 977.633 977.633 794.667 1203.33 794.667V786.667V778.667C968.797 778.667 778.667 968.796 778.667 1203.33H786.667ZM1203.33 1620V1612C977.633 1612 794.667 1429.03 794.667 1203.33H786.667H778.667C778.667 1437.87 968.797 1628 1203.33 1628V1620Z" fill="black" mask="url(#path-1-inside-1_1652_44)"/>
</svg>
